<svg width="660" height="420" viewBox="0 0 660 420" fill="none" xmlns="http://www.w3.org/2000/svg">
<g clip-path="url(#clip0_839_39)">
<path d="M36.9998 418.775C26.818 417.937 17.8287 410.571 12.7165 401.725C11.0022 398.759 9.82753 394.868 11.7689 392.045C12.3246 391.237 13.0926 390.598 13.9882 390.199C14.8838 389.799 15.8723 389.655 16.8448 389.781C17.8172 389.908 18.7359 390.3 19.4996 390.916C20.2633 391.531 20.8423 392.345 21.1729 393.268C20.5476 389.803 20.2789 386.282 20.371 382.762C20.4493 379.782 21.0124 376.412 23.4906 374.754C26.3657 372.832 30.5097 374.358 32.6009 377.113C34.6922 379.868 35.2596 383.452 35.7615 386.874C35.3518 385.426 35.3118 383.898 35.6453 382.43C35.9788 380.962 36.6751 379.601 37.6705 378.472C38.6659 377.342 39.9286 376.481 41.343 375.966C42.7575 375.451 44.2785 375.299 45.7669 375.524C49.9779 376.159 53.2766 379.805 54.5638 383.865C55.851 387.924 55.4491 392.326 54.6207 396.504C53.6492 401.402 52.0727 406.261 49.2343 410.37C46.3959 414.479 42.1798 417.791 37.2883 418.796L36.9998 418.775Z" fill="#F2F2F2"/>
<path d="M660 88.0982C660 106.369 654.322 124.188 643.75 139.09C633.178 153.992 618.236 165.239 600.992 171.276C600.443 171.467 599.886 171.658 599.329 171.833V82.3136H483.997C484.03 81.7567 484.071 81.1999 484.121 80.6514H599.329V63.1647C599.329 62.0627 598.891 61.006 598.112 60.2267C597.332 59.4475 596.276 59.0096 595.174 59.0091H488.726C488.917 58.4523 489.116 57.8954 489.332 57.3469C496.544 37.9905 510.327 21.7831 528.273 11.5563C546.22 1.32948 567.189 -2.26664 587.518 1.3962C607.846 5.05904 626.242 15.748 639.49 31.5956C652.739 47.4432 659.998 67.442 660 88.0982Z" fill="#F2F2F2"/>
<path d="M595.174 57.3469H190.425C188.882 57.3486 187.403 57.9621 186.313 59.0528C185.222 60.1435 184.609 61.6223 184.607 63.1647V337.433C184.609 338.975 185.222 340.454 186.313 341.545C187.403 342.635 188.882 343.249 190.425 343.251H595.174C596.716 343.249 598.195 342.635 599.286 341.545C600.376 340.454 600.99 338.975 600.991 337.433V63.1647C600.99 61.6223 600.376 60.1435 599.286 59.0528C598.195 57.9621 596.716 57.3486 595.174 57.3469ZM599.329 337.433C599.329 338.535 598.891 339.591 598.112 340.371C597.332 341.15 596.276 341.588 595.174 341.588H190.425C189.323 341.588 188.266 341.15 187.487 340.371C186.708 339.591 186.27 338.535 186.269 337.433V63.1647C186.27 62.0627 186.708 61.006 187.487 60.2268C188.266 59.4476 189.323 59.0096 190.425 59.0092H595.174C596.276 59.0096 597.332 59.4476 598.112 60.2268C598.891 61.006 599.329 62.0627 599.329 63.1647V337.433Z" fill="#3F3D56"/>
<path d="M600.16 80.6514H185.438V82.3136H600.16V80.6514Z" fill="#3F3D56"/>
<path d="M199.567 74.8004C202.321 74.8004 204.553 72.5678 204.553 69.8137C204.553 67.0596 202.321 64.827 199.567 64.827C196.813 64.827 194.58 67.0596 194.58 69.8137C194.58 72.5678 196.813 74.8004 199.567 74.8004Z" fill="#3F3D56"/>
<path d="M213.904 74.8004C216.658 74.8004 218.89 72.5678 218.89 69.8137C218.89 67.0596 216.658 64.827 213.904 64.827C211.15 64.827 208.917 67.0596 208.917 69.8137C208.917 72.5678 211.15 74.8004 213.904 74.8004Z" fill="#3F3D56"/>
<path d="M228.24 74.8004C230.994 74.8004 233.227 72.5678 233.227 69.8137C233.227 67.0596 230.994 64.827 228.24 64.827C225.486 64.827 223.253 67.0596 223.253 69.8137C223.253 72.5678 225.486 74.8004 228.24 74.8004Z" fill="#3F3D56"/>
<path d="M298.469 114.694H225.331C223.789 114.696 222.31 115.309 221.22 116.4C220.129 117.49 219.515 118.969 219.514 120.512V193.65C219.515 195.192 220.129 196.671 221.22 197.762C222.31 198.852 223.789 199.466 225.331 199.468H298.469C300.011 199.466 301.49 198.852 302.581 197.762C303.671 196.671 304.285 195.192 304.287 193.65V120.512C304.285 118.969 303.671 117.49 302.581 116.4C301.49 115.309 300.011 114.696 298.469 114.694ZM302.624 193.65C302.624 194.752 302.186 195.809 301.407 196.588C300.627 197.367 299.571 197.805 298.469 197.805H225.331C224.229 197.805 223.173 197.367 222.393 196.588C221.614 195.809 221.176 194.752 221.176 193.65V120.512C221.176 119.41 221.614 118.353 222.393 117.574C223.173 116.794 224.229 116.357 225.331 116.356H298.469C299.571 116.357 300.627 116.794 301.407 117.574C302.186 118.353 302.624 119.41 302.624 120.512V193.65Z" fill="#3F3D56"/>
<path d="M429.783 115.109H356.646C355.214 115.112 353.841 115.682 352.829 116.695C351.816 117.707 351.246 119.08 351.244 120.512V193.65C351.246 195.082 351.816 196.454 352.829 197.467C353.841 198.479 355.214 199.049 356.646 199.052H429.783C431.215 199.049 432.588 198.479 433.6 197.467C434.613 196.454 435.183 195.082 435.185 193.65V120.512C435.183 119.08 434.613 117.707 433.6 116.695C432.588 115.682 431.215 115.112 429.783 115.109Z" fill="#6C63FF"/>
<path d="M561.098 115.109H487.961C486.529 115.112 485.156 115.682 484.144 116.695C483.131 117.707 482.561 119.08 482.559 120.512V193.65C482.561 195.082 483.131 196.454 484.144 197.467C485.156 198.479 486.529 199.049 487.961 199.052H561.098C562.53 199.049 563.903 198.479 564.915 197.467C565.928 196.454 566.498 195.082 566.5 193.65V120.512C566.498 119.08 565.928 117.707 564.915 116.695C563.903 115.682 562.53 115.112 561.098 115.109Z" fill="#E6E6E6"/>
<path d="M298.469 224.817H225.331C223.899 224.819 222.527 225.389 221.515 226.402C220.502 227.415 219.932 228.787 219.929 230.219V303.357C219.932 304.789 220.502 306.161 221.515 307.174C222.527 308.186 223.899 308.757 225.331 308.759H298.469C299.901 308.757 301.273 308.186 302.286 307.174C303.298 306.161 303.868 304.789 303.871 303.357V230.219C303.868 228.787 303.298 227.415 302.286 226.402C301.273 225.389 299.901 224.819 298.469 224.817Z" fill="#E6E6E6"/>
<path d="M429.783 224.817H356.646C355.214 224.819 353.841 225.389 352.829 226.402C351.816 227.415 351.246 228.787 351.244 230.219V303.357C351.246 304.789 351.816 306.161 352.829 307.174C353.841 308.186 355.214 308.757 356.646 308.759H429.783C431.215 308.757 432.588 308.186 433.6 307.174C434.613 306.161 435.183 304.789 435.185 303.357V230.219C435.183 228.787 434.613 227.415 433.6 226.402C432.588 225.389 431.215 224.819 429.783 224.817Z" fill="#6C63FF"/>
<path d="M561.098 224.817H487.961C486.529 224.819 485.156 225.389 484.144 226.402C483.131 227.415 482.561 228.787 482.559 230.219V303.357C482.561 304.789 483.131 306.161 484.144 307.174C485.156 308.186 486.529 308.757 487.961 308.759H561.098C562.53 308.757 563.903 308.186 564.915 307.174C565.928 306.161 566.498 304.789 566.5 303.357V230.219C566.498 228.787 565.928 227.415 564.915 226.402C563.903 225.389 562.53 224.819 561.098 224.817Z" fill="#E6E6E6"/>
<path d="M280.6 236.868H207.462C206.03 236.866 204.657 236.296 203.644 235.284C202.631 234.271 202.062 232.898 202.06 231.466V158.327C202.062 156.895 202.631 155.522 203.644 154.509C204.657 153.496 206.03 152.927 207.462 152.925H280.6C282.032 152.927 283.405 153.497 284.418 154.509C285.43 155.522 286 156.895 286.002 158.327V231.466C286 232.898 285.43 234.271 284.418 235.284C283.405 236.296 282.032 236.866 280.6 236.868Z" fill="#6C63FF"/>
<path d="M168.503 408.982L178.244 405.992L171.349 366.998L156.973 371.41L168.503 408.982Z" fill="#A0616A"/>
<path d="M199.806 409.272L169.192 418.668L165.562 406.839L184.348 401.074C185.901 400.597 187.533 400.431 189.151 400.585C190.768 400.739 192.34 401.21 193.775 401.972C195.21 402.733 196.482 403.77 197.517 405.022C198.551 406.275 199.329 407.719 199.806 409.272Z" fill="#2F2E41"/>
<path d="M85.3947 409.206L95.5841 409.205L100.431 369.904L85.3931 369.904L85.3947 409.206Z" fill="#A0616A"/>
<path d="M115.234 418.666L83.2112 418.668L83.2107 406.295L102.861 406.294C104.486 406.294 106.095 406.614 107.596 407.236C109.097 407.857 110.461 408.769 111.61 409.917C112.759 411.066 113.67 412.43 114.292 413.931C114.914 415.432 115.234 417.041 115.234 418.666L115.234 418.666Z" fill="#2F2E41"/>
<path d="M84.6634 295.279C83.8263 294.545 83.1603 293.637 82.7123 292.618C82.2643 291.598 82.0451 290.493 82.0703 289.381C82.0955 288.268 82.3644 287.174 82.8581 286.176C83.3518 285.178 84.0583 284.301 84.9277 283.605L92.8277 184.125L108.894 188.14L96.0302 285.179C97.1013 286.717 97.571 288.595 97.3503 290.456C97.1296 292.317 96.2338 294.033 94.8327 295.278C93.4316 296.523 91.6225 297.211 89.7483 297.211C87.874 297.211 86.0648 296.524 84.6634 295.279Z" fill="#A0616A"/>
<path d="M116.836 145.542C128.11 145.542 137.249 136.403 137.249 125.129C137.249 113.855 128.11 104.716 116.836 104.716C105.562 104.716 96.4233 113.855 96.4233 125.129C96.4233 136.403 105.562 145.542 116.836 145.542Z" fill="#A0616A"/>
<path d="M99.0865 181.066C94.4805 174.742 94.3386 166.033 99.3001 159.985C102.538 156.038 107.954 152.88 116.996 152.88C141.099 152.88 150.241 171.995 150.241 171.995C150.241 171.995 160.214 190.28 154.396 206.902C148.579 223.524 148.579 225.187 148.579 225.187L110.348 221.862C110.348 221.862 116.797 205.38 99.0865 181.066Z" fill="#CCCCCC"/>
<path d="M87.2974 197.612L95.5334 170.667C96.085 168.862 97.0261 167.201 98.2903 165.801C99.5544 164.4 101.111 163.294 102.849 162.561C104.588 161.828 106.466 161.486 108.351 161.559C110.237 161.632 112.083 162.118 113.76 162.983C116.669 164.49 118.896 167.046 119.99 170.134C121.084 173.223 120.963 176.611 119.65 179.613L109.18 203.459L87.2974 197.612Z" fill="#CCCCCC"/>
<path d="M147.747 221.031L180.161 388.916L162.707 393.903L120.321 283.364L101.205 396.396L82.9211 398.889C82.9211 398.889 74.9006 249.335 110.348 221.862L147.747 221.031Z" fill="#2F2E41"/>
<path d="M194.399 213.162C194.103 213.514 193.836 213.889 193.599 214.284L152.43 216.28L144.502 192.078L130.738 198.62L143.693 234.667L194.608 224.709C195.805 226.016 197.37 226.927 199.097 227.321C200.824 227.716 202.63 227.575 204.275 226.919C205.92 226.262 207.326 225.12 208.307 223.644C209.287 222.169 209.795 220.43 209.762 218.659C209.73 216.888 209.16 215.169 208.127 213.73C207.094 212.291 205.647 211.201 203.979 210.604C202.311 210.007 200.502 209.932 198.79 210.389C197.079 210.846 195.547 211.814 194.399 213.162Z" fill="#A0616A"/>
<path d="M124.978 174.409C124.757 172.535 124.951 170.636 125.546 168.845C126.14 167.054 127.12 165.416 128.417 164.046C129.715 162.676 131.297 161.607 133.052 160.916C134.808 160.225 136.694 159.928 138.577 160.045C141.846 160.255 144.914 161.701 147.157 164.089C149.4 166.476 150.651 169.628 150.657 172.904V198.947L128.27 202.392L124.978 174.409Z" fill="#CCCCCC"/>
<path d="M121.326 145.727C118.262 145.714 115.898 142.488 116.036 139.427C116.173 136.366 118.229 133.674 120.705 131.87C123.182 130.066 126.087 128.968 128.849 127.642C131.611 126.316 134.348 124.662 136.054 122.116C137.084 120.45 137.699 118.561 137.847 116.608C137.995 114.655 137.672 112.695 136.904 110.893C135.317 107.288 132.593 104.303 129.147 102.395C124.03 99.3994 117.971 98.4415 112.179 99.7122C106.387 100.983 101.286 104.389 97.8918 109.252L94.3945 118.775C90.8308 123.06 90.2655 129.424 92.4562 134.549C94.6469 139.674 99.3113 143.53 104.575 145.363C109.915 147.079 115.631 147.251 121.065 145.858" fill="#2F2E41"/>
<path d="M102.67 114.011C101.167 111.602 98.5607 110.069 95.8667 109.17C92.7457 108.128 89.4264 107.82 86.1671 108.271C82.9078 108.722 79.7965 109.919 77.0756 111.769C74.3546 113.619 72.0973 116.072 70.4795 118.937C68.8618 121.802 67.9271 125.002 67.7483 128.288C67.4628 133.536 69.1061 138.668 70.0717 143.834C71.0372 149 71.2293 154.706 68.3808 159.123C66.2112 162.487 62.5931 164.605 59.0219 166.414C56.0454 167.921 52.8259 169.336 49.5031 169.036C46.1803 168.735 42.8406 166.103 42.9287 162.768C41.8164 165.16 41.0653 167.703 40.7 170.315C40.4663 172.938 41.1127 175.768 43.0072 177.597C45.7608 180.255 50.1236 180.061 53.9078 179.487C62.0999 178.246 70.3954 175.917 76.8675 170.744C83.3396 165.57 87.6342 157.051 85.9298 148.943C85.2178 145.555 83.5446 142.463 82.1925 139.277C80.8405 136.091 79.7849 132.606 80.406 129.201C80.7736 127.446 81.5218 125.794 82.5978 124.361C83.6738 122.927 85.0513 121.747 86.6331 120.905C89.8321 119.241 93.4925 118.686 97.0408 119.326C99.3671 119.708 102.272 120.301 103.652 118.389C104.017 117.784 104.204 117.087 104.19 116.38C104.176 115.673 103.963 114.984 103.574 114.393C102.778 113.224 101.764 112.22 100.588 111.434" fill="#2F2E41"/>
<path d="M256.384 420H0.989539C0.859343 420 0.730344 419.975 0.609951 419.926C0.489557 419.876 0.380133 419.803 0.287937 419.711C0.195741 419.619 0.12259 419.51 0.0726785 419.39C0.0227674 419.27 -0.00292969 419.141 -0.00292969 419.01C-0.00292969 418.88 0.0227674 418.751 0.0726785 418.631C0.12259 418.511 0.195741 418.402 0.287937 418.31C0.380133 418.218 0.489557 418.145 0.609951 418.095C0.730344 418.046 0.859343 418.02 0.989539 418.021H256.384C256.514 418.02 256.643 418.046 256.763 418.095C256.884 418.145 256.993 418.218 257.085 418.31C257.177 418.402 257.251 418.511 257.3 418.631C257.35 418.751 257.376 418.88 257.376 419.01C257.376 419.141 257.35 419.27 257.3 419.39C257.251 419.51 257.177 419.619 257.085 419.711C256.993 419.803 256.884 419.876 256.763 419.926C256.643 419.975 256.514 420 256.384 420Z" fill="#3F3D56"/>
</g>
<defs>
<clipPath id="clip0_839_39">
<rect width="660" height="420" fill="white"/>
</clipPath>
</defs>
</svg>
